#!OML:ASF F:\VICON\USERDATA\INSTALL\rory3\rory3.ASF
:FULLY-SPECIFIED
:DEGREES
115
root -0.770744 16.0747 -10.6848 1.28979 -2.09499 0.521998
lowerback 11.2431 1.80902 -4.74478
upperback -4.6439 1.82872 1.41113
thorax -11.6132 1.29383 3.8326
lowerneck -9.4473 -5.59682 -3.38311
upperneck 18.0336 -7.80527 3.46828
head 7.3585 -3.67007 0.95986
rclavicle 6.65929e-015 3.57812e-015
rhumerus -31.0954 -3.79265 -81.8968
rradius 31.4101
rwrist 0.134735
rhand -11.5355 19.0684
rfingers 7.12502
rthumb 14.5046 -10.4046
lclavicle 6.65929e-015 3.57812e-015
lhumerus -39.5876 7.87437 84.1614
lradius 19.2335
lwrist -2.72526
lhand -4.6938 18.2751
lfingers 7.12502
lthumb 21.0876 47.1484
rfemur 19.3497 6.65122 25.6422
rtibia 16.1462
rfoot -5.65568 1.47529
rtoes -24.7354
lfemur -31.553 -12.8076 -20.7885
ltibia 33.4896
lfoot -4.20858 9.98335
ltoes 34.9345
116
root -0.750927 16.0491 -10.5555 1.1833 -1.38405 0.715998
lowerback 11.7365 1.60867 -4.77025
upperback -4.70297 1.51736 1.29561
thorax -11.9402 1.15071 3.78212
lowerneck -9.78222 -5.61482 -3.42371
upperneck 18.3267 -7.84264 3.54369
head 7.52021 -3.67518 0.973792
rclavicle 4.8578e-015 5.96354e-016
rhumerus -31.6631 -4.67665 -81.6981
rradius 30.848
rwrist 0.803577
rhand -11.4985 17.1829
rfingers 7.12502
rthumb 14.5402 -12.2875
lclavicle 4.8578e-015 5.96354e-016
lhumerus -39.1886 8.30609 83.7364
lradius 18.8205
lwrist -3.2565
lhand -4.69105 17.967
lfingers 7.12502
lthumb 21.0902 46.84
rfemur 17.7769 5.0174 24.9017
rtibia 19.8113
rfoot -5.13243 2.43876
rtoes -24.4052
lfemur -31.4745 -12.1696 -21.541
ltibia 34.2701
lfoot -3.63315 8.76579
ltoes 34.5683
117
root -0.724084 16.0406 -10.4028 1.03438 -1.23631 0.718423
lowerback 11.9529 1.57 -4.62564
upperback -4.7352 1.47389 1.25262
thorax -12.0958 1.12089 3.66009
lowerneck -9.87785 -5.58876 -3.36539
upperneck 18.4216 -7.81253 3.51146
head 7.5635 -3.65715 0.953173
rclavicle 1.65737e-014 9.14409e-015
rhumerus -32.3149 -5.49846 -81.3987
rradius 30.1627
rwrist 1.29482
rhand -11.3146 17.4682
rfingers 7.12502
rthumb 14.7174 -11.9893
lclavicle 1.65737e-014 9.14409e-015
lhumerus -38.8635 8.60589 83.4589
lradius 18.5029
lwrist -3.38931
lhand -4.82454 18.1807
lfingers 7.12502
lthumb 20.962 47.068
rfemur 16.3046 3.95514 24.2916
rtibia 23.0824
rfoot -3.72817 3.2872
rtoes -22.1223
lfemur -31.1643 -11.6566 -21.985
ltibia 35.0596
lfoot -3.80609 7.95047
ltoes 34.3936
118
root -0.694586 16.044 -10.2335 0.902803 -1.34827 0.730994
lowerback 11.7446 1.60494 -4.52077
upperback -4.71632 1.54578 1.22817
thorax -11.9506 1.14194 3.55973
lowerneck -9.29434 -5.6112 -3.31592
upperneck 17.9871 -7.83984 3.47316
head 7.31486 -3.68486 0.952315
rclavicle -2.22142e-014 1.05356e-014
rhumerus -33.0623 -6.13047 -81.0507
rradius 29.5123
rwrist 1.61787
rhand -11.0065 18.0163
rfingers 7.12502
rthumb 15.0142 -11.4193
lclavicle -2.22142e-014 1.05356e-014
lhumerus -38.6687 8.63227 83.4142
lradius 18.586
lwrist -3.18616
lhand -4.7718 19.3797
lfingers 7.12502
lthumb 21.0127 48.2613
rfemur 14.7122 3.22621 23.6828
rtibia 26.3862
rfoot -1.91557 3.86046
rtoes -19.2598
lfemur -30.6866 -11.2463 -22.38
ltibia 35.6828
lfoot -4.26943 7.46923
ltoes 34.0404
119
root -0.666015 16.0456 -10.0757 0.77411 -1.22401 0.703978
lowerback 11.7217 1.54657 -4.34582
upperback -4.71079 1.49723 1.22761
thorax -11.9183 1.10454 3.471
lowerneck -8.96758 -5.6477 -3.36171
upperneck 17.7922 -7.8831 3.47593
head 7.19718 -3.71589 0.968397
rclavicle 9.13167e-015 1.11319e-014
rhumerus -33.8219 -6.57963 -80.7329
rradius 28.9555
rwrist 1.86769
rhand -10.9976 18.1721
rfingers 7.12502
rthumb 15.0228 -11.2629
lclavicle 9.13167e-015 1.11319e-014
lhumerus -38.5143 9.05103 83.1468
lradius 18.495
lwrist -3.70643
lhand -4.67349 19.7784
lfingers 7.12502
lthumb 21.1071 48.6496
rfemur 13.1119 2.42576 23.2006
rtibia 29.5796
rfoot 0.107164 4.12083
rtoes -18.7296
lfemur -30.234 -10.7794 -22.7491
ltibia 36.1537
lfoot -4.48179 6.9237
ltoes 33.6224
120
root -0.634369 16.0509 -9.9225 0.657557 -1.12054 0.807359
lowerback 11.7664 1.49242 -4.23576
upperback -4.64608 1.43571 1.17805
thorax -11.8593 1.06179 3.3675
lowerneck -9.59121 -5.63684 -3.28424
upperneck 18.1048 -7.84797 3.3157
head 7.39841 -3.69465 0.885464
rclavicle -2.72087e-014 6.16232e-015
rhumerus -34.4128 -6.91506 -80.4916
rradius 28.4462
rwrist 2.03839
rhand -11.2903 19.31
rfingers 7.12502
rthumb 14.7408 -10.1459
lclavicle -2.72087e-014 6.16232e-015
lhumerus -37.9441 9.79314 82.6643
lradius 17.7665
lwrist -4.62903
lhand -4.77161 18.9788
lfingers 7.12502
lthumb 21.0128 47.8604
rfemur 11.4269 1.54541 22.5246
rtibia 32.7921
rfoot 2.45979 4.39606
rtoes -20.4209
lfemur -29.6823 -10.3631 -23.259
ltibia 36.4408
lfoot -4.80757 6.38616
ltoes 32.2376
